<svg width="82" height="158" viewBox="0 0 82 158" fill="none" xmlns="http://www.w3.org/2000/svg">
<path d="M4.57666 132.526C4.34724 134.047 5.17721 135.34 6.33942 136.559H40.4473H40.7327H74.84C76.0029 135.34 76.832 134.047 76.6026 132.526C76.3082 130.575 73.6441 127.926 72.0797 126.596C69.1948 124.143 67.0927 121.861 65.147 117.455C58.3744 98.0557 59.4447 74.6869 61.0612 62.5508H20.1192C21.7353 74.6869 22.806 98.0557 16.0323 117.455C14.087 121.861 11.9864 124.142 9.09998 126.596C7.53487 127.927 4.87146 130.575 4.57666 132.526Z" fill="#FA4D56"/>
<path d="M19.2786 54.5605H17.1348C16.6624 54.5605 16.2738 55.0938 16.2738 55.7484V59.2188C16.2738 59.8711 16.6643 60.404 17.1348 60.404H19.8183H61.3621H63.7595C64.2304 60.404 64.619 59.8692 64.619 59.2188V55.7484C64.619 55.0957 64.2323 54.5605 63.7595 54.5605H61.6143V52.117C61.6143 51.4647 61.2756 50.9299 60.8613 50.9299H40.4466H20.0325C19.6183 50.9299 19.2786 51.4628 19.2786 52.117V54.5605Z" fill="#FA4D56"/>
<path d="M40.5883 0C54.7355 0 66.2033 11.4667 66.2033 25.6127C66.2033 34.348 61.8304 42.0601 55.1547 46.6832H26.0247C23.4044 44.8683 21.1385 42.5779 19.3534 39.9364C27.7613 41.9981 38.5629 38.0474 46.4897 29.198C47.3208 28.2686 48.0957 27.315 48.8119 26.3407L46.2901 28.4349C41.0604 32.7496 24.946 36.6478 16.1495 33.2961C15.388 30.8704 14.976 28.2901 14.976 25.6127C14.976 11.4667 26.4423 0 40.5883 0Z" fill="#FA4D56"/>
<path d="M76.8053 140.979H4.37482C3.14874 140.979 2.14594 141.959 2.14594 143.158V146.911C0.962565 146.919 0 147.865 0 149.022V155.207C0 156.37 0.970556 157.318 2.15997 157.318H40.4436H40.7365H79.0198C80.2096 157.318 81.1794 156.37 81.1794 155.207V149.022C81.1794 147.865 80.217 146.919 79.0341 146.911V143.158C79.0341 141.959 78.0321 140.979 76.8053 140.979Z" fill="#FA4D56"/>
</svg>
