<svg width="387" height="80" viewBox="0 0 387 80" fill="none" xmlns="http://www.w3.org/2000/svg">
<path d="M79.0497 61.0162C73.0267 61.0162 68.3869 59.8704 65.1405 57.5789C61.8942 55.2873 60.2684 52.361 60.2684 48.7998C60.2684 46.4463 60.8464 44.1238 61.9922 41.8323C62.467 40.7485 63.0761 39.7524 63.8193 38.844C66.596 38.2402 69.6049 37.6982 72.8564 37.2131C80.1645 36.1293 86.6314 35.4635 92.2467 35.2209V32.5061C92.2467 25.807 91.3332 21.193 89.5061 18.6589C87.6791 16.1248 84.8715 14.8551 81.0781 14.8551C79.6536 14.8551 78.4356 15.0048 77.424 15.3093L76.0047 15.7635V29.3424L74.6834 29.6159C73.5996 29.7346 72.6861 29.7966 71.9429 29.7966C69.641 29.7966 67.7778 29.1927 66.3585 27.985C65.0063 26.7205 64.3302 25.0587 64.3302 23.0045C64.3302 20.2278 65.8889 17.8744 69.001 15.9441C72.1803 14.0139 76.8872 13.0487 83.1167 13.0487C88.3965 13.0487 92.9332 13.8952 96.7214 15.5828C100.577 17.2138 103.493 19.5053 105.454 22.4626C107.482 25.358 108.499 28.7076 108.499 32.5113V56.9957L114.589 58.7608V60.1181H105.449C101.387 60.1181 98.2388 59.0033 96.004 56.7686C95.0544 55.8654 94.3112 54.2603 93.7692 52.8719C92.8196 54.379 91.7048 55.7364 90.4197 56.9441C87.3746 59.6588 83.5812 61.0162 79.0497 61.0162ZM26.365 42.2813C28.6049 42.2813 30.3597 41.3007 31.6139 39.3446C32.8732 37.3886 33.4977 33.9358 33.4977 28.9811C33.4977 24.0264 32.868 20.5736 31.6139 18.6176C30.3545 16.6615 28.6049 15.6809 26.365 15.6809C24.1251 15.6809 22.3703 16.6615 21.1161 18.6176C19.862 20.5736 19.2323 24.0264 19.2323 28.9811C19.2323 33.9358 19.862 37.3886 21.1161 39.3446C22.3754 41.3007 24.1251 42.2813 26.365 42.2813ZM41.6367 17.0538C42.1632 16.1196 42.9838 15.0409 43.7941 14.3132C45.8327 12.481 48.3462 11.5623 51.3345 11.5623C53.6467 11.5623 55.5821 12.2797 57.1459 13.7197C58.7097 15.1545 59.4891 17.0383 59.4891 19.3608C59.4891 21.1362 58.9626 22.571 57.9098 23.6703C55.995 25.6677 53.177 25.709 50.8132 24.6045C50.1887 22.282 49.0481 20.1917 47.3862 18.3698C47.6908 16.8112 48.6455 15.2164 50.3126 13.859C48.5475 13.859 46.8805 14.6229 45.3166 16.1506C44.7592 16.6512 44.1296 17.5905 43.6857 18.4421C47.0817 21.131 48.7798 24.6458 48.7798 28.9863C48.7798 33.3268 46.8753 37.1615 43.0716 39.9433C39.2678 42.7252 33.6938 44.1135 26.3547 44.1135C21.4619 44.1135 17.044 43.3497 13.1061 41.822L11.0674 42.7407C10.3862 43.1071 9.88037 43.458 9.53974 43.7935C9.1991 44.129 9.02879 44.5419 9.02879 45.0322C9.02879 46.0696 9.62233 46.8644 10.8146 47.4166C12.0016 47.9689 14.128 48.2424 17.1834 48.2424H36.5479C41.6471 48.2424 45.6366 49.574 48.5269 52.232C51.4171 54.8899 52.857 58.6059 52.857 63.3748C52.857 68.1437 50.5965 72.2416 46.0805 75.297C41.5594 78.3524 34.8189 79.8801 25.8489 79.8801C19.8001 79.8801 14.8763 79.3898 11.0674 78.4143C7.25853 77.4389 4.52829 76.1847 2.86125 74.6519C1.1942 73.1242 0.363281 71.5036 0.363281 69.7901C0.363281 67.7102 1.13228 66.1205 2.45353 64.7941C10.4378 56.7531 22.2154 70.0636 12.0842 76.2105C12.8996 76.4531 14.1899 76.7628 15.9602 77.1292C19.0878 77.7382 22.04 78.0479 24.827 78.0479C33.1157 78.0479 39.18 76.995 43.0199 74.8841C46.8598 72.7732 48.7798 70.1617 48.7798 67.0444C48.7798 63.0703 44.7025 61.0833 36.5479 61.0833H17.1834C12.0842 61.0833 8.17722 60.1336 5.46247 58.2395C2.74256 56.3454 1.38517 53.93 1.38517 50.9933C1.38517 48.0566 2.97997 45.4606 6.17471 43.2C7.46499 42.3432 9.09589 41.5794 11.0674 40.9085C8.55398 39.5046 6.73726 37.8376 5.61213 35.9125C4.49217 33.9874 3.9296 31.6804 3.9296 28.9863C3.9296 24.46 5.83405 20.8111 9.6378 18.0292C13.4415 15.2474 19.0156 13.859 26.3547 13.859C29.5494 13.859 32.4861 14.1481 35.1699 14.7313C37.8433 15.3093 39.9955 16.0886 41.6264 17.0589L41.6367 17.0538ZM266.822 52.9803C266.373 52.5107 266.053 52.01 266.14 51.4217C266.254 50.6681 267.286 49.6411 267.89 49.125C269.005 48.1753 269.82 47.2928 270.574 45.5844C273.196 38.075 272.783 29.0276 272.158 24.3309H288.008C287.384 29.0276 286.965 38.075 289.587 45.5844C290.341 47.2876 291.156 48.1753 292.271 49.125C292.875 49.6411 293.907 50.663 294.021 51.4217C294.108 52.01 293.788 52.5107 293.339 52.9803H266.822ZM271.002 21.2394H271.833V20.2949C271.833 20.042 271.962 19.8356 272.127 19.8356H287.931C288.091 19.8356 288.22 20.042 288.22 20.2949V21.2394H289.051C289.231 21.2394 289.381 21.4459 289.381 21.6988V23.0407C289.381 23.2936 289.231 23.5 289.051 23.5H271.002C270.821 23.5 270.667 23.2936 270.667 23.0407V21.6988C270.667 21.4459 270.816 21.2394 271.002 21.2394ZM289.995 10.0346C289.995 4.55868 285.557 0.120117 280.081 0.120117C274.605 0.120117 270.166 4.55868 270.166 10.0346C270.166 11.072 270.326 12.0681 270.62 13.0074C274.027 14.3029 280.261 12.7958 282.289 11.1236L283.265 10.3133C282.986 10.6901 282.687 11.0617 282.367 11.4178C279.296 14.8448 275.116 16.3725 271.864 15.5725C272.556 16.5944 273.433 17.4821 274.445 18.184H285.722C288.307 16.3931 290 13.41 290 10.0295L289.995 10.0346ZM266.063 54.6887H294.098C294.573 54.6887 294.96 55.0706 294.96 55.5299V56.9853C295.419 56.9853 295.791 57.357 295.791 57.8008V60.1956C295.791 60.6446 295.414 61.011 294.955 61.011H265.206C264.747 61.011 264.37 60.6446 264.37 60.1956V57.8008C264.37 57.3518 264.742 56.9853 265.201 56.9853V55.5299C265.201 55.0654 265.588 54.6887 266.063 54.6887ZM359.727 59.2046C362.437 59.2046 364.702 57.5169 366.529 54.1364C368.423 50.7559 369.373 45.0528 369.373 37.0325C369.373 29.0121 368.423 23.3039 366.529 19.9233C364.702 16.5428 362.431 14.8551 359.727 14.8551C357.023 14.8551 354.721 16.5428 352.821 19.9233C350.994 23.3039 350.081 29.0018 350.081 37.0325C350.081 45.0632 350.994 50.761 352.821 54.1364C354.721 57.5169 357.017 59.2046 359.727 59.2046ZM359.727 61.0162C351.335 61.0162 344.734 58.9053 339.929 54.6835C335.191 50.3998 332.822 44.5161 332.822 37.0325C332.822 29.5488 335.191 23.6961 339.929 19.4743C344.734 15.1906 351.335 13.0487 359.727 13.0487C368.119 13.0487 374.684 15.1906 379.427 19.4743C384.232 23.6961 386.637 29.5488 386.637 37.0325C386.637 44.5161 384.232 50.3946 379.427 54.6835C374.689 58.9053 368.124 61.0162 359.727 61.0162ZM320.549 61.0162C316.085 61.0162 312.193 60.2936 308.874 58.8433C305.623 57.3931 303.12 55.4061 301.36 52.8719C299.6 50.3378 298.723 47.4734 298.723 44.2735V16.6667H296.152V14.4061H298.723V8.26953C298.723 2.84003 301.768 0.125283 307.858 0.125283H314.965V14.4061H329.178V16.6667H314.965V44.2735C314.965 49.8269 315.605 53.6255 316.895 55.6796C318.18 57.7337 320.079 58.7556 322.582 58.7556C325.086 58.7556 327.155 57.7027 328.982 55.5867C329.049 55.5093 329.116 55.4267 329.183 55.3441V58.5027C326.871 60.1801 323.991 61.0162 320.554 61.0162H320.549ZM241.553 61.0162C237.016 61.0162 233.228 59.6588 230.183 56.9441C228.898 55.7364 227.778 54.379 226.833 52.8719C226.358 54.1984 225.548 55.406 224.397 56.495C221.827 58.9104 218.07 60.113 213.125 60.113H212.114V2.84003L206.018 1.48266V0.125283H219.215C225.306 0.125283 228.356 2.84003 228.356 8.26953V16.6667C229.44 15.8822 230.487 15.2783 231.504 14.8551C233.94 13.6474 236.784 13.0436 240.035 13.0436C246.869 13.0436 252.288 15.1235 256.283 19.2885C260.344 23.3916 262.373 29.3063 262.373 37.0273C262.373 42.1575 261.459 46.5289 259.632 50.152C257.805 53.7132 255.333 56.4279 252.221 58.2963C249.109 60.1078 245.553 61.011 241.558 61.011L241.553 61.0162ZM237.491 57.8473C239.659 57.8473 241.45 56.3402 242.874 53.321C244.36 50.2449 245.109 44.8154 245.109 37.0273C245.109 29.2392 244.298 23.2987 242.673 20.2846C241.114 17.2654 238.884 15.7583 235.974 15.7583C234.214 15.7583 232.418 16.3622 230.591 17.5699C230.049 17.9312 229.305 18.535 228.356 19.3814V50.6062C228.965 51.9945 229.708 53.2023 230.591 54.2242C232.619 56.6396 234.921 57.8473 237.496 57.8473H237.491ZM118.166 58.7401L124.256 56.9905V17.1621L118.166 15.7893V14.4216H127.306C131.301 14.4216 134.449 15.5777 136.751 17.895C137.628 18.8085 138.377 19.9388 138.986 21.2756C140.003 19.5724 141.086 18.1995 142.237 17.1621C145.282 14.4216 148.771 13.0487 152.694 13.0487C156.616 13.0487 160.074 13.8384 163.052 15.4228C166.03 16.9454 168.332 19.0511 169.958 21.7297C170.974 19.9646 172.058 18.5298 173.209 17.4357C176.321 14.5093 179.81 13.0487 183.666 13.0487C187.253 13.0487 190.468 13.7197 193.312 15.0616C196.223 16.4035 198.457 18.2305 200.016 20.5427C201.642 22.86 202.452 25.3838 202.452 28.1295V56.9905L208.542 58.7401V60.113H195.34C189.25 60.113 186.205 57.3724 186.205 51.8862V28.1244C186.205 24.1658 185.529 21.2085 184.177 19.2627C182.824 17.2499 181.302 16.2486 179.609 16.2486C177.648 16.2486 175.65 17.4666 173.617 19.9027C172.807 21.0588 172.094 22.282 171.485 23.5568V56.9905L177.576 58.7401V60.113H149.148V58.7401L155.238 56.9905V28.1295C155.238 24.1709 154.562 21.2136 153.21 19.2679C151.858 17.255 150.335 16.2538 148.642 16.2538C146.681 16.2538 144.684 17.4718 142.65 19.9079C141.84 21.064 141.128 22.2871 140.519 23.5619V56.9957L146.609 58.7453V60.1181H118.176V58.7453L118.166 58.7401ZM83.1115 57.8473C85.6147 57.8473 87.8856 56.6396 89.9139 54.2242C90.6571 53.321 91.4364 52.1133 92.2467 50.6062V37.4815C89.1345 37.4815 86.1566 37.6312 83.3128 37.9357C81.2122 38.1782 79.7929 38.3279 79.0497 38.3898C78.7091 39.0556 78.3736 39.9588 78.033 41.1046C77.3569 43.3961 77.0162 45.6618 77.0162 47.8915C77.0162 51.272 77.5943 53.7751 78.7401 55.406C79.891 57.037 81.3464 57.8473 83.1064 57.8473H83.1115Z" fill="#FA4D56"/>
</svg>
